<svg xmlns="http://www.w3.org/2000/svg" viewBox="0 0 64 64" role="img" aria-label="Ortho.ia">
  <defs>
    <clipPath id="circle-clip">
      <circle cx="32" cy="32" r="30"/>
    </clipPath>
  </defs>
  <circle cx="32" cy="32" r="30" fill="#3F5E52"/>
  <g clip-path="url(#circle-clip)">
    <g transform="translate(32 32) rotate(-35)">
      <path d="M0,-22 C5,-16 8,-6 6,6 C4,14 1,19 0,22 C-1,19 -4,14 -6,6 C-8,-6 -5,-16 0,-22Z" fill="#FAF6EF" opacity="0.96"/>
      <path d="M0,-17 C4,-10 5,-2 3,8 C2,13 0,17 0,17 C-1,10 -4,-2 0,-17Z" fill="#A8BBB1" opacity="0.38"/>
      <line x1="0" y1="-19" x2="0" y2="19" stroke="#3F5E52" stroke-width="1.3" stroke-linecap="round"/>
      <path d="M0,-12 C-5,-9 -9,-6 -11,-3" fill="none" stroke="#3F5E52" stroke-width="0.7" stroke-linecap="round" opacity="0.52"/>
      <path d="M0,-4 C-6,-1 -10,2 -12,5" fill="none" stroke="#3F5E52" stroke-width="0.7" stroke-linecap="round" opacity="0.52"/>
      <path d="M0,5 C-5,8 -9,11 -10,14" fill="none" stroke="#3F5E52" stroke-width="0.7" stroke-linecap="round" opacity="0.44"/>
      <path d="M0,-12 C5,-9 9,-6 11,-3" fill="none" stroke="#3F5E52" stroke-width="0.7" stroke-linecap="round" opacity="0.52"/>
      <path d="M0,-4 C6,-1 10,2 12,5" fill="none" stroke="#3F5E52" stroke-width="0.7" stroke-linecap="round" opacity="0.52"/>
      <path d="M0,5 C5,8 9,11 10,14" fill="none" stroke="#3F5E52" stroke-width="0.7" stroke-linecap="round" opacity="0.44"/>
      <path d="M0,19 C3,25 2,31 0,36 C-2,31 -3,25 0,19Z" fill="#C97B5E"/>
      <path d="M0,32 C4,35 9,34 13,32" fill="none" stroke="#C97B5E" stroke-width="1.1" stroke-linecap="round" opacity="0.6"/>
    </g>
  </g>
</svg>
